# xmcd CD database file
#
# Track frame offsets:
#	150
#	16988
#	35363
#	55417
#	80393
#	96280
#	116168
#	136038
#	156638
#	176893
#	203538
#	222475
#	237550
#
# Disc length: 3420 seconds
#
# Revision: 1
# Processed by: cddbd v1.5.2PL0 Copyright (c) Steve Scherf et al.
# Submitted via: CDex 1.70beta2
#
DISCID=b90d5a0d
DTITLE=Keiko Matsui - MOYO Heart and Soul
DYEAR=2007
DGENRE=Jazz
TTITLE0=Mojo (Heart and Soul)
TTITLE1=A Great Romance
TTITLE2=Into the Night
TTITLE3=Carictas
TTITLE4=An Evening In Gibraltar
TTITLE5=When  I Close My Eyes
TTITLE6=After the Rain
TTITLE7=Allure
TTITLE8=Black River
TTITLE9=Old Potch Road
TTITLE10=Um Novo Dia (A New Day)
TTITLE11=Marula
TTITLE12=When I Close My Eyes
EXTD=YEAR: 2007
EXTT0=
EXTT1=
EXTT2=
EXTT3=
EXTT4=
EXTT5=
EXTT6=
EXTT7=
EXTT8=
EXTT9=
EXTT10=
EXTT11=
EXTT12=
PLAYORDER=
